<?xml version="1.0" encoding="UTF-8"?>
<svg width="24px" height="27px" viewBox="0 0 24 27" version="1.1" xmlns="http://www.w3.org/2000/svg" xmlns:xlink="http://www.w3.org/1999/xlink">
    <title>编组 27备份</title>
    <g id="首页2" stroke="none" stroke-width="1" fill="none" fill-rule="evenodd">
        <g id="首页" transform="translate(-401.000000, -5728.000000)">
            <g id="编组-27备份" transform="translate(401.000000, 5728.000000)">
                <path d="M12,27 C12.4317893,27 12.9002501,23.7761443 13.5737705,23.5867398 C19.4583763,21.9318969 24,17.9325832 24,11.8265224 C24,5.29491443 18.627417,0 12,0 C5.372583,0 0,5.29491443 0,11.8265224 C0,17.8955877 4.46175204,22.50527 10.3925133,23.5867398 C11.3108272,23.7541937 11.5306726,27 12,27 Z" id="椭圆形" fill="#FF3550"></path>
                <circle id="椭圆形" fill="#FFFFFF" cx="12" cy="12" r="8"></circle>
                <g id="城市" transform="translate(8.000000, 8.000000)" fill="#FF3550" fill-rule="nonzero">
                    <path d="M0.655737705,7.3442623 L7.3442623,7.3442623 L7.3442623,0.852459016 C7.3442623,0.800285281 7.32353636,0.750248445 7.28664396,0.713356043 C7.24975155,0.676463641 7.19971472,0.655737705 7.14754098,0.655737705 L4,0.655737705 C3.89135382,0.655737705 3.80327869,0.743812836 3.80327869,0.852459016 L3.80327869,3.80327869 L0.852459016,3.80327869 C0.743812836,3.80327869 0.655737705,3.89135382 0.655737705,4 L0.655737705,7.3442623 Z M3.14754098,3.14754098 L3.14754098,0.852459016 C3.14754098,0.381901639 3.52944262,0 4,0 L7.14754098,0 C7.61809836,0 8,0.381901639 8,0.852459016 L8,7.40983607 C8,7.73560656 7.73560656,8 7.40983607,8 L0.590163934,8 C0.433642727,8 0.283532221,7.93782219 0.172855014,7.82714499 C0.0621778074,7.71646778 0,7.56635727 0,7.40983607 L0,4 C0,3.52944262 0.381901639,3.14754098 0.852459016,3.14754098 L3.14754098,3.14754098 Z" id="形状"></path>
                    <path d="M3.14754098,2.95081967 L3.80327869,2.95081967 L3.80327869,7.67213115 L3.14754098,7.67213115 L3.14754098,2.95081967 Z M6.09836066,2.09836066 C6.27943762,2.09836066 6.42622951,2.24515254 6.42622951,2.42622951 C6.42622951,2.60730648 6.27943762,2.75409836 6.09836066,2.75409836 L5.04918033,2.75409836 C4.86810336,2.75409836 4.72131148,2.60730648 4.72131148,2.42622951 C4.72131148,2.24515254 4.86810336,2.09836066 5.04918033,2.09836066 L6.09836066,2.09836066 Z M6.09836066,3.67213115 C6.27943762,3.67213115 6.42622951,3.81892303 6.42622951,4 C6.42622951,4.18107697 6.27943762,4.32786885 6.09836066,4.32786885 L5.04918033,4.32786885 C4.86810336,4.32786885 4.72131148,4.18107697 4.72131148,4 C4.72131148,3.81892303 4.86810336,3.67213115 5.04918033,3.67213115 L6.09836066,3.67213115 Z M6.09836066,5.24590164 C6.27943762,5.24590164 6.42622951,5.39269352 6.42622951,5.57377049 C6.42622951,5.75484746 6.27943762,5.90163934 6.09836066,5.90163934 L5.04918033,5.90163934 C4.86810336,5.90163934 4.72131148,5.75484746 4.72131148,5.57377049 C4.72131148,5.39269352 4.86810336,5.24590164 5.04918033,5.24590164 L6.09836066,5.24590164 Z" id="形状"></path>
                </g>
            </g>
        </g>
    </g>
</svg>